<?xml version="1.0" standalone="no"?>
<!DOCTYPE svg PUBLIC "-//W3C//DTD SVG 20010904//EN"
 "http://www.w3.org/TR/2001/REC-SVG-20010904/DTD/svg10.dtd">
<svg version="1.0" xmlns="http://www.w3.org/2000/svg"
 width="947.000000pt" height="837.000000pt" viewBox="0 0 947.000000 837.000000"
 preserveAspectRatio="xMidYMid meet">
<metadata>
Created by potrace 1.16, written by Peter Selinger 2001-2019
</metadata>
<g transform="translate(0.000000,837.000000) scale(0.100000,-0.100000)"
fill="#000000" stroke="none">
<path d="M4445 8204 c-304 -16 -673 -81 -965 -170 -255 -78 -411 -141 -655
-264 -992 -500 -1745 -1415 -2039 -2477 -109 -392 -151 -698 -151 -1103 0
-271 11 -407 52 -659 133 -822 532 -1600 1119 -2185 456 -454 1031 -803 1626
-986 431 -133 820 -190 1263 -184 359 4 642 41 975 128 1060 275 1958 971
2491 1930 165 298 325 703 387 986 6 25 20 88 31 140 56 251 85 538 85 835 -1
1141 -474 2211 -1314 2971 -639 578 -1407 922 -2280 1019 -135 15 -493 26
-625 19z m615 -220 c387 -43 683 -119 1055 -271 286 -117 627 -316 858 -501
l69 -55 -1193 -1193 c-657 -657 -1196 -1194 -1199 -1194 -9 0 -2380 2374
-2382 2385 -4 16 183 156 337 254 555 353 1144 546 1805 591 163 11 479 3 650
-16z m-2180 -2594 c655 -654 1190 -1193 1190 -1197 0 -5 -537 -545 -1193
-1201 l-1193 -1193 -66 83 c-368 465 -641 1102 -737 1718 -60 382 -60 803 0
1185 89 568 315 1126 642 1590 58 82 156 205 163 205 3 0 540 -535 1194 -1190z
m4809 1100 c305 -394 547 -901 666 -1395 141 -583 141 -1217 1 -1800 -122
-504 -370 -1020 -679 -1415 -32 -41 -61 -74 -64 -74 -3 1 -543 538 -1199 1195
l-1194 1194 1192 1192 c656 656 1196 1193 1200 1193 4 0 39 -41 77 -90z
m-4341 -489 c49 -25 79 -59 100 -112 12 -32 23 -44 37 -44 39 0 21 -39 -46
-102 -36 -35 -71 -63 -77 -63 -6 0 -16 8 -21 18 -8 15 -3 25 24 52 60 59 55
125 -15 184 -39 32 -87 34 -124 5 -37 -29 -35 -80 4 -142 53 -84 70 -125 70
-171 0 -101 -118 -166 -223 -122 -49 20 -115 97 -128 151 -11 44 -12 45 -30
29 -15 -14 -21 -14 -34 -4 -8 7 -15 16 -15 20 0 7 159 170 165 170 2 0 10 -3
19 -6 25 -9 19 -37 -14 -69 -17 -16 -35 -46 -42 -66 -9 -33 -8 -44 13 -86 44
-88 136 -121 193 -68 44 40 39 75 -25 180 -57 96 -67 136 -42 185 38 75 132
102 211 61z m266 -307 c26 -10 19 -38 -19 -74 -19 -19 -35 -38 -35 -44 0 -6
16 -27 36 -47 23 -24 34 -43 31 -53 -10 -26 -41 -18 -77 19 -19 19 -39 35 -45
35 -19 0 -185 -176 -185 -197 0 -23 19 -49 40 -55 19 -6 59 13 84 41 22 25 54
28 62 6 8 -19 -9 -40 -60 -77 -57 -41 -98 -38 -147 11 -70 69 -54 118 77 239
l87 81 -17 26 c-30 46 5 76 45 39 17 -16 21 -14 59 20 44 40 42 39 64 30z
m199 -364 c77 -53 107 -144 73 -224 -33 -79 -138 -156 -214 -156 -37 0 -98 23
-125 48 -52 46 -71 139 -43 206 20 48 73 104 125 132 59 31 133 29 184 -6z
m231 -249 c27 -28 37 -46 34 -59 -5 -17 1 -21 29 -27 19 -3 52 -22 74 -42 76
-69 74 -162 -8 -253 -75 -83 -170 -111 -250 -74 -42 20 -81 69 -89 113 l-7 32
-38 -37 c-22 -21 -39 -42 -39 -48 0 -5 10 -20 22 -33 20 -22 21 -25 5 -40 -15
-16 -21 -12 -91 61 -72 76 -85 106 -46 106 10 0 24 -10 32 -22 14 -21 16 -21
39 -6 13 9 87 77 164 151 l140 135 -22 24 c-13 13 -23 32 -23 41 0 29 34 19
74 -22z m494 -320 c49 -25 79 -59 100 -112 12 -32 23 -44 37 -44 39 0 21 -39
-46 -102 -36 -35 -71 -63 -77 -63 -6 0 -16 8 -21 18 -8 15 -3 25 24 52 60 59
55 125 -15 184 -39 32 -87 34 -124 5 -37 -29 -35 -80 4 -142 53 -84 70 -125
70 -171 0 -101 -118 -166 -223 -122 -49 20 -115 97 -128 151 -11 44 -12 45
-30 29 -15 -14 -21 -14 -34 -4 -8 7 -15 16 -15 20 0 7 159 170 165 170 2 0 10
-3 19 -6 25 -9 19 -37 -14 -69 -17 -16 -35 -46 -42 -66 -9 -33 -8 -44 13 -86
44 -88 136 -121 193 -68 44 40 39 75 -25 180 -57 96 -67 136 -42 185 38 75
132 102 211 61z m213 -431 c48 -13 116 -86 125 -134 15 -85 -68 -162 -120
-110 -30 29 -13 66 31 68 56 2 36 78 -29 112 -85 44 -228 -56 -228 -161 0 -81
60 -126 133 -100 54 19 73 19 81 0 7 -19 -25 -52 -59 -61 -42 -10 -111 2 -144
26 -127 90 -71 296 96 356 46 16 67 17 114 4z m348 -144 c50 -51 50 -50 -27
-120 l-54 -50 44 -13 c53 -15 107 -68 116 -114 14 -68 5 -87 -94 -189 -52 -53
-94 -101 -94 -105 0 -5 9 -19 21 -31 22 -24 19 -44 -8 -44 -14 0 -153 137
-153 151 0 4 7 12 15 19 12 10 19 7 39 -15 24 -26 27 -27 48 -12 43 28 159
148 168 173 14 36 3 70 -32 99 -37 31 -66 39 -99 26 -32 -12 -175 -135 -183
-158 -4 -10 2 -25 15 -39 22 -23 20 -54 -3 -54 -21 0 -158 149 -152 165 8 21
27 19 49 -5 10 -11 24 -20 31 -20 16 0 249 217 287 267 l27 37 -21 22 c-22 24
-20 54 4 54 7 0 32 -20 56 -44z m312 -521 c40 -21 87 -81 95 -120 10 -57 -4
-104 -46 -149 l-39 -41 -103 103 c-57 56 -107 102 -111 102 -18 0 -47 -68 -47
-108 0 -37 6 -50 34 -78 27 -27 42 -34 73 -33 21 0 47 4 58 8 45 18 63 -25 23
-53 -42 -30 -142 -13 -191 32 -62 56 -75 160 -28 234 68 107 188 151 282 103z
m446 -1252 c645 -645 1173 -1179 1173 -1187 0 -7 -12 -22 -27 -32 -15 -9 -50
-36 -78 -58 -132 -108 -417 -280 -639 -387 -488 -233 -986 -352 -1536 -366
-555 -14 -1039 74 -1552 283 -295 120 -692 354 -913 538 l-30 25 1195 1195
c1160 1161 1195 1195 1214 1178 11 -9 548 -545 1193 -1189z m56 932 c20 -24
37 -48 37 -53 0 -6 -17 -25 -37 -42 -21 -18 -95 -88 -165 -155 -126 -121 -150
-157 -113 -171 20 -8 19 -43 -1 -51 -22 -8 -97 71 -89 96 4 14 -1 20 -26 25
-98 19 -157 140 -116 239 35 83 138 157 217 157 81 0 160 -69 160 -139 0 -17
4 -31 9 -31 13 0 81 78 81 93 0 8 -9 22 -20 32 -23 21 -26 41 -7 48 20 7 31
-1 70 -48z m55 -270 c24 -24 41 -49 37 -55 -4 -6 -47 -50 -97 -98 -49 -48 -96
-99 -104 -114 -19 -37 -9 -71 32 -108 40 -34 76 -38 115 -12 42 27 159 141
159 154 0 6 -8 20 -17 30 -16 17 -16 20 0 35 16 16 20 14 62 -27 25 -25 41
-48 37 -55 -4 -6 -52 -54 -107 -105 -55 -52 -107 -104 -115 -117 -13 -20 -12
-24 9 -47 13 -13 20 -29 16 -35 -13 -22 -42 -10 -79 30 -29 32 -34 44 -25 55
12 15 10 17 -46 29 -40 9 -102 76 -111 120 -11 58 4 85 97 180 49 50 89 97 89
105 0 7 -7 21 -16 31 -18 20 -13 49 8 49 7 0 33 -20 56 -45z m460 -258 c23
-23 42 -46 42 -51 0 -4 -78 -83 -172 -176 l-173 -168 24 -25 c23 -26 23 -57
-1 -57 -21 0 -158 149 -152 165 9 22 41 18 54 -5 6 -11 17 -20 24 -20 15 0
302 264 310 287 4 10 -2 25 -15 39 -22 24 -20 54 4 54 7 0 32 -19 55 -43z
m123 -332 c40 -21 87 -81 95 -120 10 -57 -4 -104 -46 -149 l-39 -41 -103 103
c-57 56 -107 102 -111 102 -18 0 -47 -68 -47 -108 0 -37 6 -50 34 -78 27 -27
42 -34 73 -33 21 0 47 4 58 8 45 18 63 -25 23 -53 -42 -30 -142 -13 -191 32
-62 56 -75 160 -28 234 68 107 188 151 282 103z"/>
<path d="M1997 4992 l-357 -2 2 -798 3 -797 143 -3 142 -3 0 300 c0 165 3 306
6 315 5 14 33 16 203 16 108 0 201 -4 207 -8 6 -4 44 -88 84 -187 41 -99 97
-236 125 -305 l52 -125 153 -3 c85 -1 158 2 163 7 5 5 -21 78 -68 187 -42 99
-106 249 -142 334 l-65 155 24 14 c46 29 155 147 177 194 157 326 -63 690
-429 709 -36 2 -226 2 -423 0z m462 -302 c140 -40 194 -211 98 -310 -60 -62
-75 -64 -362 -65 l-260 0 -3 180 c-1 98 0 185 2 192 7 16 471 19 525 3z"/>
<path d="M6942 4992 l-372 -2 2 -798 3 -797 140 0 140 0 3 305 c2 228 5 306
15 312 21 14 393 10 404 -4 6 -7 52 -114 103 -238 50 -124 106 -259 124 -300
l31 -75 154 -3 c85 -1 158 1 163 6 8 8 0 30 -52 147 -74 166 -220 518 -218
524 2 5 32 32 66 61 35 29 82 80 103 113 146 226 78 530 -150 670 -127 79
-158 83 -659 79z m454 -307 c84 -25 134 -92 134 -180 0 -79 -31 -128 -105
-168 -38 -21 -53 -22 -300 -22 l-260 0 -3 180 c-1 98 0 185 2 192 8 20 465 18
532 -2z"/>
<path d="M3648 5272 c-63 -41 -98 -95 -98 -150 0 -37 6 -50 34 -78 27 -27 42
-34 73 -34 68 0 154 68 183 145 23 62 -29 134 -102 142 -35 4 -51 -1 -90 -25z"/>
<path d="M3994 4922 c-111 -81 -140 -150 -87 -212 35 -42 65 -53 112 -40 68
18 161 120 161 175 0 29 -30 75 -60 90 -43 22 -82 18 -126 -13z"/>
<path d="M5281 3613 c-21 -18 -21 -18 56 -96 l77 -79 18 22 c39 48 13 131 -49
156 -44 19 -77 18 -102 -3z"/>
<path d="M5548 3301 c-56 -36 -98 -102 -98 -155 0 -52 52 -106 102 -106 40 0
94 35 145 93 55 63 56 116 3 168 -39 39 -90 39 -152 0z"/>
<path d="M6421 2433 c-21 -18 -21 -18 56 -96 l77 -79 18 22 c39 48 13 131 -49
156 -44 19 -77 18 -102 -3z"/>
</g>
</svg>
